<svg xmlns="http://www.w3.org/2000/svg" width="342.808" height="246" viewBox="0 0 342.808 246"><g transform="translate(3084.097 1514.273)"><path d="M2441.952,1438.672l-3.286,1.008-2.208-5.108-4.987.882-2.277-3.553-1.8,1.153,3.045,4.752,4.725-.836,2.3,5.314,4.946-1.518Z" transform="translate(-5206.096 -2770.461)" fill="#50bfa5"/><g transform="translate(-3014.227 -1409.034)"><g transform="translate(0)"><path d="M1441.894,1269.036s-17.537-59.44-18.944-72.551,8.4-9.049,8.4-9.049-8.25-24.984-2.284-30.913,11.346,5.123,11.346,5.123,1.806-30.328,8.166-30.339c11.846-.021,11.613,33.076,11.613,33.076s3.023-12.958,9.366-9.405c9.566,5.357-4.152,31.324-4.152,31.324s12.189.009,16.47,6.155C1489.557,1203.484,1441.894,1269.036,1441.894,1269.036Z" transform="translate(-1422.812 -1131.307)" fill="#50bfa5"/></g></g><g transform="translate(-3080.378 -1366.632)"><path d="M1231.631,1399.623s-50.555-8.454-61.552-17.411-.112-13-.112-13-25.4-13.019-25.1-21.872,12.911-4.352,12.911-4.352-21.4-24.4-16.333-29.035c9.436-8.632,34.175,16.734,34.175,16.734s-7.346-12.063.39-13.972c11.667-2.879,20.277,26.866,20.277,26.866s-2.188-11.747,5.857-10.182C1216.576,1336.209,1231.631,1399.623,1231.631,1399.623Z" transform="translate(-1140.667 -1312.164)" fill="#50bfa5"/><path d="M1204.675,1333.4c-8.064-1.458-5.857,10.182-5.857,10.182s-8.611-29.745-20.277-26.866c-7.736,1.909-.391,13.972-.391,13.972s-24.738-25.365-34.175-16.734l90.018,85.682C1232.392,1391.454,1218.2,1335.846,1204.675,1333.4Z" transform="translate(-1143.2 -1312.164)" fill="#3c8f7c"/></g><g transform="translate(-3084.097 -1313.999)"><path d="M1233.87,1578.838s-26.624-27.076-40.032-29.9-11,6.72-11,6.72-26.6-23.262-32.765-17.626.5,11.078.5,11.078-22.157-3.926-25.33,3.345c-4.874,11.173,31.567,17.254,31.567,17.254s-15.271,1.058-11.729,8.064C1150.429,1588.343,1233.87,1578.838,1233.87,1578.838Z" transform="translate(-1124.802 -1537.039)" fill="#355389"/><path d="M1126.716,1552.079c3.172-7.271,25.329-3.345,25.329-3.345s-6.668-5.441-.5-11.078,31.938,14.463,31.938,14.463-6.078-11.616,7.33-8.8,44.524,35.136,44.524,35.136Z" transform="translate(-1126.267 -1536.659)" fill="#466eb6"/></g><path d="M2213.626,709.365l-3.063-7.245-7.705-1.583a1.081,1.081,0,0,1-.49-1.875l5.944-5.153-.875-7.817a1.081,1.081,0,0,1,1.632-1.046l6.737,4.06,7.165-3.248a1.081,1.081,0,0,1,1.5,1.229l-1.78,7.662,5.3,5.81a1.081,1.081,0,0,1-.706,1.805l-7.837.675-3.887,6.839A1.082,1.082,0,0,1,2213.626,709.365Z" transform="translate(-5033.54 -2198.28)" fill="#f7cc7f"/><path d="M1626.469,1632.021H1479.08a10.388,10.388,0,0,1-10.193-10.573v-6.286a10.388,10.388,0,0,1,10.193-10.573h147.389a20.881,20.881,0,0,0-.271,27.112Z" transform="translate(-4472.312 -2902.661)" fill="#b75742"/><path d="M1831.09,1618H1749.34a10.389,10.389,0,0,0-10.193,10.573h0a10.388,10.388,0,0,0,10.193,10.573H1831.1A20.975,20.975,0,0,1,1831.09,1618Z" transform="translate(-4679.209 -2912.924)" fill="#fae0b2"/><path d="M1627.383,1520.5a.611.611,0,0,0-.607-.867h-77.989c-6.113,0-11.068,4.46-11.068,9.961h0c0,5.5,4.955,9.961,11.068,9.961H1626.8a.613.613,0,0,0,.608-.872h0A19.084,19.084,0,0,1,1627.383,1520.5Z" transform="translate(-4525.006 -2837.624)" fill="#86b1f2"/><path d="M1749.438,1527.54h-38.651c-7.175,0-12.99,3.737-12.99,8.347s5.815,8.347,12.99,8.347h38.905A19.05,19.05,0,0,1,1749.438,1527.54Z" transform="translate(-4647.554 -2843.677)" fill="#f7cc7f"/><g transform="translate(-2915.091 -1312.18)"><path d="M1852.648,1544.417h-5.033c-1.083,0-1.96.364-1.96.812v.073h6.994Z" transform="translate(-1845.654 -1544.417)" fill="#b75742"/><path d="M1863.118,1546.453c0-1.125-1.315-2.036-2.937-2.036h-6.459c1.23,0,2.227.691,2.227,1.544l-.031,21.824,3.57-2.807,3.638,2.807Z" transform="translate(-1851.831 -1544.417)" fill="#f47458"/></g><g transform="translate(-2992.406 -1336.9)"><path d="M1687.041,1460.093h-45.378c-4.024,0-7.286-3.871-7.286-8.647h0c0-4.776,3.262-8.648,7.286-8.648h45.378a15.214,15.214,0,0,0-.324,16.8Z" transform="translate(-1606.597 -1441.902)" fill="#fae0b2"/><path d="M1543.672,1448.521h0c0-4.776,3.339-8.648,7.458-8.648H1597.2a.421.421,0,0,0,.386-.452h0a.42.42,0,0,0-.386-.444h-73.078c-4.546,0-8.231,4.273-8.231,9.544h0c0,5.271,3.685,9.544,8.231,9.544H1597.2a.42.42,0,0,0,.387-.444h0a.422.422,0,0,0-.387-.452h-46.066C1547.012,1457.168,1543.672,1453.3,1543.672,1448.521Z" transform="translate(-1515.888 -1438.977)" fill="#466eb6"/><g transform="translate(65.527 5.146)"><path d="M1802.369,1460.925h-5.034c-1.082,0-1.96.356-1.96.8v.071h6.994Z" transform="translate(-1795.375 -1460.925)" fill="#184655"/><path d="M1812.838,1462.922c0-1.1-1.315-2-2.936-2h-6.46c1.23,0,2.227.678,2.227,1.514l-.031,21.4,3.569-2.752,3.638,2.752Z" transform="translate(-1801.55 -1460.925)" fill="#3c8f7c"/></g></g><g transform="translate(-2981.681 -1514.273)"><g transform="translate(83.125 48.531)"><path d="M2148.188,891.291l6.7-1.763-4.541,60.559-8.037.268,4.054-56.864A2.455,2.455,0,0,1,2148.188,891.291Z" transform="translate(-2089.292 -889.507)" fill="#184655"/><path d="M2170.439,951.743a2.186,2.186,0,0,1-.459-.007,2.686,2.686,0,0,1-2.2-2.956l4.459-56.943a2.442,2.442,0,0,1,2.618-2.386,2.686,2.686,0,0,1,2.2,2.956L2172.6,949.35A2.5,2.5,0,0,1,2170.439,951.743Z" transform="translate(-2108.785 -889.435)" fill="#f7cc7f"/><path d="M1916.18,1148.937c0,.042,0,.083.009.126h0a3.964,3.964,0,0,0,4.009,3.87l56.575-5.063a3.954,3.954,0,0,0,3.25-4.52c-.01-.1-.022-.194-.036-.29Z" transform="translate(-1916.18 -1083.596)" fill="#f7cc7f"/></g><path d="M1993.737,1422.893c-3.7,2.054-15.028-1.548-15.028-1.874-.163,3.1-12.68,33.386-12.68,33.386l.01,9.319s25.792,1.23,25.421-1.049-1.758-.8-6.9-5.1c-.457-.382-7.681-2.059-5.726-6.335C1982.768,1442.626,1991.131,1428.268,1993.737,1422.893Z" transform="translate(-1871.217 -1247.857)" fill="#f7a491"/><path d="M1959.848,1572.988l28.234.008c1.019-.1,1.257-.932.9-1.436-.741-1.038-6.151-3.485-9.789-5.108-6.336.74-17.472-1.7-18.492-3.141C1958.016,1566.9,1959.279,1572.871,1959.848,1572.988Z" transform="translate(-1865.873 -1356.788)" fill="#3c8f7c"/><path d="M1935.722,1234.117c-.382-1.146,24.308-11.623,25.413-10.426,1.955,2.118-13.359,41.867-13.359,41.867l17.594,5.376s18.291-45.923,17.527-54.322-9.926-17.944-29.78-11.836S1935.722,1234.117,1935.722,1234.117Z" transform="translate(-1847.942 -1080.829)" fill="#355389"/><path d="M2097.718,1447.867a93.467,93.467,0,0,0-13.894-1.05c.51,3.851,2.985,23.595,2.532,24.808a14.815,14.815,0,0,1-5.9,7.215s19.171,17.3,20.329,15.3-.855-1.73-2.107-8.321c-.111-.585-2.883-9.785-3.054-14.747C2095.3,1461.608,2097.575,1453.121,2097.718,1447.867Z" transform="translate(-1958.817 -1267.606)" fill="#f7a491"/><path d="M1794.429,1171.659c-2.674-1.427-9.618-1.477-17.252-.982a175.186,175.186,0,0,0-43.736,8.584l-9.475,3.138.031-9.714s-30.142-5.044-31.191,2.427c-1.579,11.25.38,34.088,10.423,39.186,31.193,15.834,74.907-25.225,75.065-19.853.212,7.214,6.294,34.06,7.849,45.815,4.324.075,11.755.072,14.977-.668C1801.749,1216.566,1802.043,1175.721,1794.429,1171.659Z" transform="translate(-1661.679 -1055.991)" fill="#466eb6"/><path d="M2077.9,1560.093l21.551,17.215c.854.566,1.563.076,1.6-.542.084-1.273-2.55-6.595-4.335-10.155-5.37-3.443-12.451-12.422-12.323-14.185C2082.123,1554.344,2077.533,1559.641,2077.9,1560.093Z" transform="translate(-1956.842 -1348.455)" fill="#3c8f7c"/><path d="M1633.907,704.211c-.724-6.618-1.486-13.26-6.972-18.11-4.44-3.925-10.084-4.59-15.666-2.49-15.814,5.95-7.665,19.995-27.83,34.155-6.265,4.4-13.171,7.411-17.889,13.336-6.6,8.293-4.11,18.269,1.908,24.929,28.795,31.867,60.941-11.17,63.249-21.5C1632.424,726.844,1634.372,708.471,1633.907,704.211Z" transform="translate(-1561.631 -682.44)" fill="#13375b"/><path d="M1726.286,887.3a87.871,87.871,0,0,0-4.775-7.777c-2.44-4.337-8.743-6.53-8.743-6.53s-2.108.043-4.529.162a1.918,1.918,0,0,1-.457.8c-.91.682-6.124-.2-9.491,2.088-11.288,9.676-8.167,56.577-7.278,71.391l34.378.325s-4.334-31.874,2.651-40.063C1732.906,902,1729.776,893.736,1726.286,887.3Z" transform="translate(-1659.858 -828.32)" fill="#50bfa5"/><path d="M1767.948,799.907s-1.89,13.5-3.209,16.775,7.257,10.293,14.394,12.422-2.181-7.244-1.885-10.75,1.593-20.105,1.593-20.105Z" transform="translate(-1717.016 -771.097)" fill="#f7a491"/><path d="M1787.514,803.009c.209-2.746.36-4.76.36-4.76l-10.892,1.658s-.275,1.585-.578,3.827C1780.82,806.3,1784.791,805.487,1787.514,803.009Z" transform="translate(-1726.05 -771.097)" fill="#f47458"/><path d="M1763.62,699.782a12.372,12.372,0,0,0-6.944,5.013c-2.651,4.045-4.47,15.954,4.261,21.513s15.52-2.3,15.633-9.974S1775.039,698.429,1763.62,699.782Z" transform="translate(-1709.272 -695.623)" fill="#f7a491"/><path d="M1843.076,746.733c-.745,1.851-2.223,3-3.3,2.565s-1.349-2.286-.6-4.136,2.222-3,3.3-2.565S1843.821,744.882,1843.076,746.733Z" transform="translate(-1773.779 -728.423)" fill="#f7a491"/><path d="M1749.887,699.1s-5.473,12.276-10.282,13.373-4.739,7.274-4.739,7.274.108-14.265,4.614-17.537S1749.887,699.1,1749.887,699.1Z" transform="translate(-1694.25 -695.194)" fill="#13375b"/><path d="M1746.456,757.5c.633,1.994.053,3.957-1.294,4.385s-2.953-.841-3.586-2.835-.054-3.957,1.294-4.385S1745.823,755.506,1746.456,757.5Z" transform="translate(-1699.191 -737.667)" fill="#f7a491"/><path d="M1795.169,1021.294c-2.063-.746-5.133-.838-5.082-1.111.207-1.1,9.319,2.433,8.088.825-.685-.9-7.5-4.067-9.163-3.543-1.609.508-12.169,3.472-12.169,3.472l-28.863-6.764s-7.285-16.556-8-30.779a39.67,39.67,0,0,0-15.356,5.207c2.524,13.6,8.659,35.65,15.441,39.788,2.853,1.74,36.918-2.083,36.918-2.083s7.507-.53,8.734-1c.93-.358,3.326-1.707,4.629-2.076,2.961-.839,8.239,1.267,8.255.687C1798.615,1023.492,1797.276,1022.056,1795.169,1021.294Z" transform="translate(-1686.412 -912.834)" fill="#f7a491"/><path d="M1730.407,884.953c-.278-4.377-1.935-8.6-6.592-9.963a9.429,9.429,0,0,0-8.431,1.847c-2.744,2.241-3.51,5.836-3.5,9.239a132.055,132.055,0,0,0,1.967,23.343,49.938,49.938,0,0,1,17.366-5.466C1731.218,903.908,1730.774,890.737,1730.407,884.953Z" transform="translate(-1676.659 -829.591)" fill="#96d9c9"/></g><g transform="translate(-3063.61 -1495.465)"><path d="M1258.924,817.578l-44.748-8.332a1.655,1.655,0,0,1-1.324-1.93l5.605-30.1a1.656,1.656,0,0,1,1.931-1.325l44.747,8.332a1.656,1.656,0,0,1,1.325,1.931l-5.606,30.1A1.654,1.654,0,0,1,1258.924,817.578Z" transform="translate(-1212.673 -772.765)" fill="#f7cc7f"/><path d="M1269.708,773.059l-13.621-2.537a1.655,1.655,0,0,1-1.324-1.93l.853-4.581a1.655,1.655,0,0,1,1.93-1.324l13.621,2.536a1.655,1.655,0,0,1,1.324,1.93l-.853,4.581A1.656,1.656,0,0,1,1269.708,773.059Z" transform="translate(-1244.758 -762.659)" fill="#f7cc7f"/><path d="M1260.47,826.52a1.655,1.655,0,0,1-1.9,1.178l-45.04-8.387a1.656,1.656,0,0,1-1.346-1.772l2.357-26.984a1.656,1.656,0,0,1,1.952-1.483l50.034,9.317a1.655,1.655,0,0,1,1.29,2.077Z" transform="translate(-1212.182 -782.859)" fill="#fae0b2"/></g><g transform="translate(-3055.57 -1424.679)"><path d="M1252.313,1072.215a11.849,11.849,0,0,1,6.186,1.585,8.949,8.949,0,0,1,3.3,3.406l-.355.246a8.046,8.046,0,0,0-4.122-2.535,9.918,9.918,0,0,0-4.6-.045Z" transform="translate(-1250.945 -1070.41)" fill="#355389"/><path d="M1257.15,1071.5s-11.692,1.951-10.6,11.084,13.425,16.24,24.433,10.59c14.809-7.6,8.96-26.919-1.581-28.413S1257.15,1071.5,1257.15,1071.5Z" transform="translate(-1246.477 -1064.578)" fill="#f47458"/><path d="M1309.006,1072.106s3.05-3.132,9.734-.283,7.167,16.135,1.206,15.363S1304.24,1074.023,1309.006,1072.106Z" transform="translate(-1293.373 -1069.208)" fill="#f48c7f"/></g><path d="M1574.448,1359.874h-116.11a6.528,6.528,0,0,0-6.528,6.529v5.491a6.528,6.528,0,0,0,6.528,6.529h116.11l-.06-.063A13.3,13.3,0,0,1,1574.448,1359.874Z" transform="translate(-4459.239 -2715.32)" fill="#f47458"/><path d="M1742.133,1371.585h-62.071a6.528,6.528,0,0,0-6.528,6.529h0a6.528,6.528,0,0,0,6.528,6.528h62.069A13.315,13.315,0,0,1,1742.133,1371.585Z" transform="translate(-4628.979 -2724.286)" fill="#fae0b2"/><g transform="translate(-2798.717 -1392.585)"><path d="M2350.975,1239.142l-8.8-22.081a2.164,2.164,0,0,1,1.209-2.813l31.671-12.624a2.165,2.165,0,0,1,2.813,1.209l8.8,22.082a2.165,2.165,0,0,1-1.21,2.813l-31.671,12.623A2.165,2.165,0,0,1,2350.975,1239.142Z" transform="translate(-2342.019 -1201.469)" fill="#fae0b2"/><path d="M2481.679,1240.121l-7.908-19.842a.621.621,0,0,1,.347-.807h0a.621.621,0,0,1,.807.347l7.909,19.843a.621.621,0,0,1-.347.807h0A.621.621,0,0,1,2481.679,1240.121Z" transform="translate(-2442.847 -1215.217)" fill="#466eb6"/><path d="M2470.227,1240.57l-6.493-16.291a.622.622,0,0,1,.347-.808h0a.622.622,0,0,1,.807.348l6.493,16.291a.621.621,0,0,1-.347.807h0A.622.622,0,0,1,2470.227,1240.57Z" transform="translate(-2435.164 -1218.279)" fill="#466eb6"/><path d="M2461.609,1248.121l-7.909-19.843a.622.622,0,0,1,.347-.807h0a.622.622,0,0,1,.808.347l7.909,19.842a.621.621,0,0,1-.347.807h0A.621.621,0,0,1,2461.609,1248.121Z" transform="translate(-2427.482 -1221.341)" fill="#466eb6"/><path d="M2449.77,1247.593l-6.1-15.315a.622.622,0,0,1,.347-.807h0a.621.621,0,0,1,.807.347l6.1,15.314a.621.621,0,0,1-.348.807h0A.621.621,0,0,1,2449.77,1247.593Z" transform="translate(-2419.801 -1224.403)" fill="#466eb6"/><g transform="translate(34.932 2.362)"><path d="M2494.7,1212.127l-.159-.4a.279.279,0,0,0-.357-.167l-3.006,1.2a.279.279,0,0,0-.145.366l.16.4a.279.279,0,0,0,.357.166l3.005-1.2A.278.278,0,0,0,2494.7,1212.127Z" transform="translate(-2491.011 -1211.542)" fill="#355389"/><path d="M2497.605,1219.417l-.16-.4a.28.28,0,0,0-.357-.167l-3.005,1.2a.279.279,0,0,0-.144.366l.16.4a.277.277,0,0,0,.355.166l3.006-1.2A.279.279,0,0,0,2497.605,1219.417Z" transform="translate(-2493.236 -1217.123)" fill="#355389"/><path d="M2500.51,1226.706l-.159-.4a.279.279,0,0,0-.356-.166l-3.006,1.2a.277.277,0,0,0-.144.366l.159.4a.279.279,0,0,0,.357.167l3.006-1.2A.279.279,0,0,0,2500.51,1226.706Z" transform="translate(-2495.46 -1222.704)" fill="#355389"/><path d="M2503.416,1233.995l-.159-.4a.278.278,0,0,0-.356-.167l-3.006,1.2a.278.278,0,0,0-.144.366l.159.4a.279.279,0,0,0,.357.166l3.005-1.2A.278.278,0,0,0,2503.416,1233.995Z" transform="translate(-2497.685 -1228.284)" fill="#355389"/><path d="M2506.321,1241.285l-.159-.4a.278.278,0,0,0-.357-.166l-3.006,1.2a.28.28,0,0,0-.145.366l.16.4a.279.279,0,0,0,.357.166l3.005-1.2A.279.279,0,0,0,2506.321,1241.285Z" transform="translate(-2499.909 -1233.864)" fill="#355389"/><path d="M2509.227,1248.574l-.159-.4a.28.28,0,0,0-.357-.167l-3.006,1.2a.279.279,0,0,0-.144.366l.159.4a.278.278,0,0,0,.356.167l3.005-1.2A.279.279,0,0,0,2509.227,1248.574Z" transform="translate(-2502.133 -1239.445)" fill="#355389"/><path d="M2512.132,1255.864l-.16-.4a.279.279,0,0,0-.356-.167l-3.006,1.2a.279.279,0,0,0-.145.366l.159.4a.279.279,0,0,0,.356.166l3.006-1.2A.279.279,0,0,0,2512.132,1255.864Z" transform="translate(-2504.357 -1245.026)" fill="#355389"/><path d="M2515.037,1263.153l-.159-.4a.278.278,0,0,0-.356-.167l-3.005,1.2a.278.278,0,0,0-.145.366l.159.4a.278.278,0,0,0,.357.167l3.006-1.2A.278.278,0,0,0,2515.037,1263.153Z" transform="translate(-2506.581 -1250.605)" fill="#355389"/><path d="M2517.943,1270.443l-.159-.4a.278.278,0,0,0-.356-.167l-3.006,1.2a.278.278,0,0,0-.144.366l.159.4a.279.279,0,0,0,.357.167l3.006-1.2A.279.279,0,0,0,2517.943,1270.443Z" transform="translate(-2508.806 -1256.186)" fill="#355389"/><path d="M2520.849,1277.732l-.16-.4a.279.279,0,0,0-.357-.167l-3.006,1.2a.279.279,0,0,0-.144.366l.159.4a.278.278,0,0,0,.356.166l3.006-1.2A.279.279,0,0,0,2520.849,1277.732Z" transform="translate(-2511.03 -1261.767)" fill="#355389"/><path d="M2523.754,1285.022l-.16-.4a.278.278,0,0,0-.356-.167l-3.006,1.2a.279.279,0,0,0-.145.366l.159.4a.279.279,0,0,0,.356.166l3.007-1.2A.279.279,0,0,0,2523.754,1285.022Z" transform="translate(-2513.254 -1267.347)" fill="#355389"/><path d="M2526.66,1292.311l-.159-.4a.279.279,0,0,0-.357-.166l-3.006,1.2a.279.279,0,0,0-.145.366l.16.4a.278.278,0,0,0,.356.166l3.006-1.2A.278.278,0,0,0,2526.66,1292.311Z" transform="translate(-2515.479 -1272.928)" fill="#355389"/></g><g transform="translate(40.475 19.777)"><path d="M2528.6,1286.032l-12.57,17.9a.458.458,0,0,0-.064.13l-1.281,3.933a.492.492,0,0,0,.764.546l3.365-2.536a.507.507,0,0,0,.107-.11l12.6-17.945a.494.494,0,0,0-.138-.7l-2.115-1.351A.493.493,0,0,0,2528.6,1286.032Z" transform="translate(-2514.655 -1285.823)" fill="#b75742"/><path d="M2519.181,1365.542l-.031.044-3.247,2.447-.885-.592,1.214-3.728A15.161,15.161,0,0,1,2519.181,1365.542Z" transform="translate(-2514.933 -1345.452)" fill="#f7cc7f"/></g></g><g transform="translate(-2812.285 -1336.746)"><path d="M2284.428,1448.52l3.26,3.108a86.661,86.661,0,0,1,18.548,25.7l.5,1.058s8.536.754,9.729-6.963h0a128.979,128.979,0,0,1-18.742-27.525l-1.543-3.609Z" transform="translate(-2284.363 -1440.137)" fill="#466eb6"/><path d="M2295.956,1439.779c.419.6-1.871,2.922-5.114,5.183s-6.226,3.636-6.646,3.036,1.885-2.949,5.129-5.211S2295.537,1439.179,2295.956,1439.779Z" transform="translate(-2284.147 -1439.636)" fill="#86b1f2"/><path d="M2304.575,1440.3l-.01-.012s-6.5,5.5-9.176,6.061l.827,1.125a34.307,34.307,0,0,0,3.232-2.014C2302.654,1443.227,2304.927,1440.934,2304.575,1440.3Z" transform="translate(-2292.753 -1440.136)" fill="#355389"/><g transform="translate(3.935 16.133)"><path d="M2348.221,1508.449c.012.948-.351,5.04-7.159,6.748q.673.915,1.321,1.847c4.31-1.274,6.248-3.487,7.118-5.171.138-.266.3-.624.415-.9Q2349.053,1509.72,2348.221,1508.449Z" transform="translate(-2331.653 -1508.449)" fill="#b75742"/><path d="M2310.949,1530.9l-10.02-.358,2.374,2.015-1.418,2.575,9.483-2.418Z" transform="translate(-2300.93 -1525.363)" fill="#b75742"/><path d="M2335.937,1542.01l-3.561,6.2,2.5-.953.964,1.969,1.673-6.523Z" transform="translate(-2325.004 -1534.141)" fill="#b75742"/><path d="M2342.171,1527.719a3.292,3.292,0,1,1,2.954-3.508A3.244,3.244,0,0,1,2342.171,1527.719Z" transform="translate(-2329.879 -1518.168)" fill="#f47458"/></g></g><g transform="translate(-2796.646 -1485.373)"><path d="M2372.708,839.3l-21.1-18.829c-1.371-1.224-.8-3.741,1.091-4.812l16.841-9.536a2.633,2.633,0,0,1,3.074.144l21.1,18.829c1.371,1.224.8,3.741-1.091,4.812l-16.84,9.535A2.634,2.634,0,0,1,2372.708,839.3Z" transform="translate(-2350.852 -805.706)" fill="#9bc1f9"/><g transform="translate(19.091 2.781)"><path d="M2434.046,833.408l-1.759-14.467a1.3,1.3,0,0,1,.9-1.322.838.838,0,0,1,1.145.685l1.619,13.312,16,3.869a.883.883,0,0,1,.537,1.257,1.24,1.24,0,0,1-1.355.8Z" transform="translate(-2432.28 -817.569)" fill="#fff"/></g></g><path d="M2380.616,1055.278l4.478,1.82,3.611-3.357,4.876,2.4,2.743-4.762,5.634,2.466,3.066-4.073,5.809,1.487-.562,2.2-4.343-1.111-3.236,4.3-5.416-2.37-2.79,4.842-5.381-2.644-3.525,3.279-4.151-1.687-1.866,2.637-1.853-1.31Z" transform="translate(-5168.061 -2477.919)" fill="#50bfa5"/></g></svg>