<svg xmlns="http://www.w3.org/2000/svg" xmlns:xlink="http://www.w3.org/1999/xlink" width="112.402" height="45.083" viewBox="0 0 112.402 45.083"><defs><linearGradient id="a" x1="0.714" y1="0.117" x2="0.231" y2="0.91" gradientUnits="objectBoundingBox"><stop offset="0" stop-color="#009f5f"/><stop offset="1" stop-color="#229e8d"/></linearGradient></defs><g transform="translate(-21.299 -14.958)"><path d="M21,48.042a10.016,10.016,0,0,1-4.972-1.324l-3.639-2.085h1.676V35.474h4.028c6.233,0,10.26-3.744,10.26-9.537S24.325,16.4,18.093,16.4H7.833V42.022l-2.8-1.607A10.022,10.022,0,0,1,0,31.739V19.262a10.022,10.022,0,0,1,5.028-8.676l11-6.3a10,10,0,0,1,9.944,0l11,6.3A10.023,10.023,0,0,1,42,19.262V31.739a10.023,10.023,0,0,1-5.028,8.676l-11,6.3A10.016,10.016,0,0,1,21,48.042ZM17.979,29.509H14.065V22.365h3.914c2.378,0,3.914,1.4,3.914,3.572a3.416,3.416,0,0,1-1.045,2.57A4.1,4.1,0,0,1,17.979,29.509Z" transform="translate(21.299 12)" fill="url(#a)"/><text transform="translate(70.701 48)" fill="#323232" font-size="26" font-family="Quicksand-Bold, Quicksand" font-weight="700"><tspan x="0" y="0">Pena</tspan></text></g></svg>