<svg xmlns="http://www.w3.org/2000/svg" width="394.976" height="248.633" viewBox="0 0 394.976 248.633"><path d="M972.637,1005.812s-10.852-118.549,100.32-118.549c120.107,0,50-69.131,129.395-89.112,70.076-17.635,114.841,58.72,85.676,106.7-20.991,34.532,64.7,53.67,54.45,101.678Z" transform="translate(-948.357 -757.893)" fill="#e0ecfd"/><g transform="translate(89.886 144.408)"><path d="M912.652,1309.9c-.9,0-1.637,1.039-1.64,2.325s.726,2.331,1.628,2.333,1.637-1.039,1.64-2.325S913.554,1309.905,912.652,1309.9Zm0,.658c.485,0,.877.244.876.541s-.394.538-.878.537-.877-.243-.876-.541S912.166,1310.56,912.65,1310.561Zm-.008,3.126c-.683,0-1.236-.375-1.235-.835s.556-.83,1.239-.828,1.236.375,1.235.835S913.326,1313.688,912.643,1313.687Z" transform="translate(-908.375 -1309.903)" fill="#466eb6"/><path d="M896.007,1340.27a5.643,5.643,0,0,0-.525,2.36l-.042,17.051a1.874,1.874,0,0,0,1.879,1.869l9.75.024a1.875,1.875,0,0,0,1.888-1.86l.042-17.051a5.652,5.652,0,0,0-.513-2.363Z" transform="translate(-895.44 -1335.128)" fill="#7f1ca0"/><path d="M896.007,1340.27a5.643,5.643,0,0,0-.525,2.36l-.042,17.051a1.874,1.874,0,0,0,1.879,1.869l9.75.024a1.875,1.875,0,0,0,1.888-1.86l.042-17.051a5.652,5.652,0,0,0-.513-2.363Z" transform="translate(-895.44 -1335.128)" fill="#7f1ca0"/><path d="M909,1342.666l-.042,17.052a1.875,1.875,0,0,1-1.888,1.86l-9.75-.024a1.874,1.874,0,0,1-1.879-1.869l.042-17.052a5.643,5.643,0,0,1,.524-2.359l12.478.03A5.65,5.65,0,0,1,909,1342.666Z" transform="translate(-895.444 -1335.131)" fill="#f47458"/><path d="M898.025,1359.687l.042-17.051a5.65,5.65,0,0,1,.525-2.36l-2.585-.006a5.647,5.647,0,0,0-.525,2.36l-.042,17.051a1.874,1.874,0,0,0,1.879,1.869l2.585.006A1.874,1.874,0,0,1,898.025,1359.687Z" transform="translate(-895.44 -1335.128)" fill="#f48c7f"/><path d="M946.493,1342.769l-.042,17.052a1.875,1.875,0,0,1-1.888,1.86l-3.986-.01a1.885,1.885,0,0,0,1.908-1.86l.042-17.052a5.62,5.62,0,0,0-.519-2.361l3.971.01A5.647,5.647,0,0,1,946.493,1342.769Z" transform="translate(-932.934 -1335.234)" fill="#b75742"/><path d="M911.26,1335.47l-12.48-.031h0a.992.992,0,0,1,1-.985l10.485.026a.992.992,0,0,1,.995.99Z" transform="translate(-898.214 -1330.297)" fill="#13375b"/><rect width="2.119" height="13.517" transform="translate(0.004 23.306) rotate(-89.859)" fill="#355389"/></g><g transform="translate(28.261 143.794)"><path d="M628.684,1306.545h1.491a1.559,1.559,0,0,0-.881-.267H591.947a3.355,3.355,0,0,0-3.538,3.136v1.992a3.355,3.355,0,0,0,3.538,3.136l36.93-.011Z" transform="translate(-578.775 -1306.278)" fill="#86b1f2"/><path d="M684.445,1306.322a3.209,3.209,0,0,0-3.384,3v2.251a3.209,3.209,0,0,0,3.384,3H707.7v-.5h-.1l-5.911-.5-1.195-4.154s2.306-2.3,2.456-2.355,4.649-.239,4.649-.239h.1v-.5Z" transform="translate(-655.738 -1306.314)" fill="#466eb6"/><path d="M709.875,1312.9a4.8,4.8,0,0,1,1.416-3.606H688.61a2.947,2.947,0,0,0-3.108,2.755v1.733a2.947,2.947,0,0,0,3.108,2.755h22.682S709.875,1315.961,709.875,1312.9Z" transform="translate(-659.427 -1308.785)" fill="#fae0b2"/><path d="M685.5,1312.051v1.733a2.465,2.465,0,0,0,.091.661,6.5,6.5,0,0,1,5.022-3.771c6.516-1.2,20.677-1.378,20.677-1.378H688.61A2.947,2.947,0,0,0,685.5,1312.051Z" transform="translate(-659.427 -1308.785)" fill="#daeef7" style="mix-blend-mode:multiply;isolation:isolate"/><path d="M599.011,1403.768H600.7a1.648,1.648,0,0,0-1-.333h-42.27a3.966,3.966,0,0,0-4,3.926v2.493a3.966,3.966,0,0,0,4,3.926l41.8-.014Z" transform="translate(-549.716 -1386.983)" fill="#50bfa5"/><path d="M662.122,1403.489a3.792,3.792,0,0,0-3.829,3.754v2.818a3.792,3.792,0,0,0,3.829,3.754h26.314v-.63h-.109l-6.69-.621-1.352-5.2s2.61-2.873,2.78-2.948,5.262-.3,5.262-.3h.109v-.627Z" transform="translate(-636.825 -1387.028)" fill="#3c8f7c"/><path d="M690.9,1411.726a6.291,6.291,0,0,1,1.6-4.514H666.835a3.483,3.483,0,0,0-3.517,3.448v2.169a3.483,3.483,0,0,0,3.517,3.448h25.671S690.9,1415.554,690.9,1411.726Z" transform="translate(-640.999 -1390.12)" fill="#fae0b2"/><path d="M663.318,1410.66v2.169a3.384,3.384,0,0,0,.1.827,7.522,7.522,0,0,1,5.684-4.72c7.375-1.5,23.4-1.724,23.4-1.724H666.835A3.483,3.483,0,0,0,663.318,1410.66Z" transform="translate(-640.999 -1390.12)" fill="#daeef7" style="mix-blend-mode:multiply;isolation:isolate"/><path d="M536.92,1355.225h-1.688a1.942,1.942,0,0,1,1-.265h42.287c2.212,0,4.006,1.395,4.006,3.115v1.978c0,1.72-1.794,3.115-4.006,3.115l-41.814-.011Z" transform="translate(-534.603 -1346.716)" fill="#f47458"/><path d="M557.839,1355c2.116,0,3.831,1.333,3.831,2.979v2.236c0,1.645-1.715,2.979-3.831,2.979H531.514v-.5h.109l6.692-.493,1.353-4.126s-2.611-2.28-2.781-2.339-5.264-.237-5.264-.237h-.109v-.5Z" transform="translate(-531.514 -1346.753)" fill="#b75742"/><path d="M533.732,1361.539a4.547,4.547,0,0,0-1.6-3.582H557.81c1.943,0,3.519,1.225,3.519,2.736v1.721c0,1.511-1.575,2.736-3.519,2.736H532.129S533.732,1364.577,533.732,1361.539Z" transform="translate(-532.025 -1349.206)" fill="#fae0b2"/><path d="M561.329,1360.693v1.721a2.164,2.164,0,0,1-.1.656,7.277,7.277,0,0,0-5.686-3.745c-7.378-1.191-23.411-1.368-23.411-1.368H557.81C559.754,1357.957,561.329,1359.182,561.329,1360.693Z" transform="translate(-532.025 -1349.206)" fill="#daeef7" style="mix-blend-mode:multiply;isolation:isolate"/></g><rect width="4.035" height="92.462" transform="translate(181.83 155.954) rotate(10.732)" fill="#184655"/><path d="M2053.662,1470.064h4.768l-17.771-92.026-3.964.751Z" transform="translate(-1753.557 -1222.092)" fill="#184655"/><path d="M1538.091,1470.064h4.769l-17.771-92.026-3.964.751Z" transform="translate(-1325.289 -1222.092)" fill="#184655"/><path d="M1861.315,1472.09l-3.872.046,17.037-91.659,3.964.752Z" transform="translate(-1604.658 -1224.119)" fill="#184655"/><path d="M1324.612,644.2c15.7,1.681,36.015,3.455,56.411,38.066,22.291,37.828,10.557,94.333-7.037,110.036s-75.056,35.09-123.36,6.065c0,0-29.167-17.59-14.2-46.782,23.035-44.924,19.78-54.292,30.08-71.9S1291.288,640.629,1324.612,644.2Z" transform="translate(-1085.251 -612.189)" fill="#fae0b2"/><path d="M1427.511,697.33c-13.921-23.623-27.8-31.947-40.208-35.387a103.88,103.88,0,0,1,14.53,19.614c22.291,37.828,10.557,94.333-7.037,110.036-15.6,13.925-62.558,30.743-106.677,14.13a44.828,44.828,0,0,0,8.994,7.708c48.3,29.025,105.766,9.637,123.36-6.065S1449.8,735.158,1427.511,697.33Z" transform="translate(-1131.739 -627.256)" fill="#f7cc7f"/><g transform="translate(93.647 49.355)"><path d="M919.746,782.6l44.86-.337a1.855,1.855,0,0,0,1.841-1.869l-.225-29.992a1.855,1.855,0,0,0-1.869-1.841l-44.86.337a1.855,1.855,0,0,0-1.841,1.869l.225,29.992A1.855,1.855,0,0,0,919.746,782.6Z" transform="translate(-917.652 -748.566)" fill="#f47458"/><path d="M1179.758,847.086l14.484,14.76-17.868-3.335Z" transform="translate(-1132.563 -830.403)" fill="#f47458"/><g transform="translate(11.803 3.784)"><path d="M1009.679,781.73l-4.359-.078s-5.493-4.1-5.661-5.551.732-4.518-.12-4.9a2.855,2.855,0,0,0-3.8,1.23c-.828,1.393-.139,6.48-.651,6.82a23.033,23.033,0,0,1-4.658.228,3.234,3.234,0,0,0-2.876,1.719l0,0a1.723,1.723,0,0,0,.417,2.129l.972.813-.765,1.016a1.723,1.723,0,0,0,.332,2.406l.768.586-.526.6a1.723,1.723,0,0,0,.306,2.548l.682.478-.1.189a1.723,1.723,0,0,0,.563,2.258l.685.454,11.609.206a7.984,7.984,0,0,0,3.174-.6l4.1-.6a.9.9,0,0,0,.768-.886l.026-10.162A.9.9,0,0,0,1009.679,781.73Z" transform="translate(-987.355 -770.911)" fill="#fff"/></g></g><path d="M1460.72,985.671l-4.035,12.105,12.3-4.837Z" transform="translate(-1271.761 -896.166)" fill="#f79c8d"/><path d="M1473.565,772.937c-.82.034-3.066.783-6.351,6.97-4.2,7.9-10.326,31.77-10.326,31.77l18.3,6.793,2.351-4.982,3.873-38.354S1473.793,772.927,1473.565,772.937Z" transform="translate(-1271.93 -719.455)" fill="#042a44"/><path d="M1573.877,752.619c-5.233.007-18.182,1.529-24.193,3.442,0,0-4.415,37.82,3.975,66.558,1.878,6.433-1.553,26.667-1.553,26.667l54.23-.713s-6.425-48.917-4-56.819,2.478-35.438,2.478-35.438-.371-.058-12.184-2.093A123.214,123.214,0,0,0,1573.877,752.619Z" transform="translate(-1348.048 -702.578)" fill="#07345a"/><path d="M1714.214,1738.023s-1.2,13.8-3.406,17.622.116,10.318.232,11.21,4.644,2.166,11.842,1.4,7.082-2.42,6.5-5.1-4.412-6.115-4.644-8.662,2.206-11.72,2.206-11.72Z" transform="translate(-1482.067 -1521.12)" fill="#f7a491"/><path d="M1364.685,1252.067s-37.435-2.072-45.794,2.974,1.511,15.406,1.511,15.406,30.477,13.206,81.5,16.14c12.082.695,13.123-31.4,10.864-34.052S1364.685,1252.067,1364.685,1252.067Z" transform="translate(-1154.508 -1116.75)" fill="#327f6b"/><path d="M1719.956,1859.842c7.412-.787,6.5-4.416,5.9-7.171-.374-1.725-2.5-3.758-3.768-5.681a12.372,12.372,0,0,1-4.959,2.4c-3.343.984-7.925-.963-10.844-2.183a35.57,35.57,0,0,0-.991,9.528C1705.411,1857.656,1712.544,1860.629,1719.956,1859.842Z" transform="translate(-1478.242 -1611.635)" fill="#355389"/><path d="M1724.238,1280.576c-1.5,11.279-8.9,67.429-8.9,67.429l17.182,2.123s21.13-73.289,20.046-84.5-8.993-12.153-8.993-12.153S1728.2,1250.718,1724.238,1280.576Z" transform="translate(-1486.615 -1118.567)" fill="#3c8f7c"/><path d="M1598.295,459.429s5.708-6.019,10.3,1.3a4.564,4.564,0,0,1,6.019,1.551s6.391-1.924,7.943,7.632c0,0,3.289-.62,3.723,3.289a9.673,9.673,0,0,1-1.551,6.515s1.847,1.385,1.008,4.98a4.446,4.446,0,0,1-3.242,3.521s-.683,5.151-2.917,6.7a7.283,7.283,0,0,1-5.275.807s-.807,2.792-3.413,2.544-5.833-2.73-8.75-1.613-10.487-.062-10.487-.062-8.5-3.785-5.957-12.473c0,0-4.468-4.033-.559-8.874,0,0-2.855-7.57,2.792-12.038S1598.295,459.429,1598.295,459.429Z" transform="translate(-1377.132 -457.102)" fill="#07345a"/><path d="M1667.115,652.936l-1.033,7.667s-2.315,11.045.663,13.175,12.666-13.49,12.666-13.49l-1.023-19.427Z" transform="translate(-1444.988 -609.744)" fill="#f7a491"/><path d="M1683.694,647.156c-2.46,6.626-8.319,10.7-12.478,12.279l.876-6.5,11.272-12.075Z" transform="translate(-1449.965 -609.743)" fill="#f47458"/><path d="M1632.438,517.612a10.246,10.246,0,0,0-13.409,8.165,77.4,77.4,0,0,0-.831,9.837c-.163,8.955,4.473,17.67,8.539,17.67s15.3-5.8,15.711-18.509C1642.7,526.925,1638.78,519.8,1632.438,517.612Z" transform="translate(-1405.921 -506.906)" fill="#f7a491"/><path d="M1743.733,610.067c0,1.975,1.31,3.577,2.925,3.577s2.925-1.6,2.925-3.577-1.309-3.577-2.925-3.577S1743.733,608.091,1743.733,610.067Z" transform="translate(-1510.202 -581.193)" fill="#f7a491"/><path d="M1576.552,480.6c-4.2,3.327-5.672,8.383-3.288,11.292s7.723,2.57,11.923-.757,5.672-8.383,3.288-11.292S1580.752,477.271,1576.552,480.6Z" transform="translate(-1367.651 -474.348)" fill="#07345a"/><path d="M1575.369,798.993c-5.071-1.9-7.551,43.635-8.235,62.376-8.979.861-24.63.007-28.526-.285-1.833-.137-6.059-1.68-7.881-1.918a18.306,18.306,0,0,0-4.479-.211c-.337.058-9.7,3.873-10.5,4.71-.993,1.037-3.677,3.654-3.224,4.786s5.163-3.153,5.163-3.153l2.3-1.287c-2.865,2.79-8.33,6.464-7.543,7.8.768,1.3,5.7-2.424,9.211-4.965-3.013,2.713-6.757,7.567-5.895,8.324.775.68,5.034-4.94,9.585-6.559,1.687-.6,3.368,1.061,4.695,1.262a9.571,9.571,0,0,0,3.437.191l4.928-1.393c1.679.151,1.721,1.141,3.416,1.5,1.968.417,5.2.857,7.7,1.467,14.432,3.514,19.246,5.146,23.665,5.144C1586.576,876.776,1587.352,803.473,1575.369,798.993Z" transform="translate(-1318.017 -741.052)" fill="#f7a491"/><path d="M1840.344,820.869c.95-19.2.811-42.857-9.987-46.893-4.26-1.593-11.771,7.984-10.42,47.283C1825.7,821.733,1834.163,822.115,1840.344,820.869Z" transform="translate(-1573.369 -720.182)" fill="#07345a"/><path d="M1584.494,1003h1.1l16.546,40.523-1.14-.173Z" transform="translate(-1377.928 -910.562)" fill="#f79c8d"/><path d="M1351.307,1807.733s1.5,4.791-1.186,7.959-13.84,6.277-15.3,7.992a4.8,4.8,0,0,0-1.354,3.177l31.31-.859-.341-9.424-1.442-6.772Z" transform="translate(-1169.404 -1579.026)" fill="#f7a491"/><path d="M1324.474,1860.539s8.045,3.243,11.931,1.323,3.769-2.452,4.893-1.736,1.527,9.55,1.527,9.55l-35.207,1.031c-2.45-.056-3.689-1.854-1.7-3.394a28.7,28.7,0,0,1,3.839-2.274C1312.513,1863.465,1324.474,1860.539,1324.474,1860.539Z" transform="translate(-1145.704 -1622.294)" fill="#355389"/><path d="M1310.64,1264.675c-2.42-5.075-7.924-11.683-17.607-7.7-9.236,3.8-11.715,13.125-8.8,22.677s22.1,65.709,22.767,73.43l15.317.1s-2.784-44.465-3.466-55.213C1318.192,1287.625,1314.828,1273.459,1310.64,1264.675Z" transform="translate(-1127.55 -1120.514)" fill="#3c8f7c"/><path d="M1282.611,1003h51.2a3.339,3.339,0,0,1,3.089,2.072l15.765,38.452H1380.9a1.429,1.429,0,0,1,1.429,1.428h0a1.429,1.429,0,0,1-1.429,1.428h-80.339a5.608,5.608,0,0,1-5.116-3.312l-15.874-35.362A3.338,3.338,0,0,1,1282.611,1003Z" transform="translate(-1124.387 -910.562)" fill="#f47458"/><path d="M1461.455,1116.966a2.818,2.818,0,1,0,2.112-3.675A3.012,3.012,0,0,0,1461.455,1116.966Z" transform="translate(-1275.664 -1002.136)" fill="#fff"/><path d="M2250.064,888.711l-.274-3.236-2.821-1.609a.446.446,0,0,1,.048-.8l2.993-1.261.658-3.18a.446.446,0,0,1,.774-.2l2.124,2.457,3.228-.357a.446.446,0,0,1,.431.674l-1.68,2.779,1.337,2.959a.446.446,0,0,1-.508.618l-3.162-.739-2.4,2.186A.446.446,0,0,1,2250.064,888.711Z" transform="translate(-1928.036 -806.953)" fill="#f48c7f"/><path d="M955.958,1104.692l3.806-3.367,6.095,5.525,6.172-4.238,5.237,3.389,1.715-2.651-7-4.533-5.849,4.016-6.341-5.748-5.727,5.068Z" transform="translate(-854.249 -988.714)" fill="#07345a"/><path d="M611.452,1071.226l3.194-5.187-2.565-1.04a1.1,1.1,0,0,1-.6-1.428h0a1.1,1.1,0,0,1,1.428-.6l2.958,1.2,2.855-4.658-2.739-1.111a1.1,1.1,0,0,1-.6-1.428h0a1.1,1.1,0,0,1,1.428-.6l3.132,1.27,3.316-5.334a1.1,1.1,0,0,1,1.343-.437l.478.194a1.1,1.1,0,0,1,.523,1.589l-3.084,5.033,4.542,1.842,3.316-5.335a1.1,1.1,0,0,1,1.343-.437l.522.212a1.1,1.1,0,0,1,.523,1.589l-3.084,5.034,2.565,1.04a1.1,1.1,0,0,1,.6,1.428h0a1.1,1.1,0,0,1-1.428.6l-2.958-1.2-2.812,4.676,2.739,1.111a1.1,1.1,0,0,1,.6,1.429h0a1.1,1.1,0,0,1-1.428.6l-3.132-1.27-3.387,5.5a1.1,1.1,0,0,1-1.346.441l-.559-.227a1.1,1.1,0,0,1-.522-1.591l3.194-5.187-4.541-1.842-3.387,5.5a1.1,1.1,0,0,1-1.346.441l-.559-.227A1.1,1.1,0,0,1,611.452,1071.226Zm11.573-4.156,2.855-4.658-4.542-1.842-2.855,4.658Z" transform="translate(-569.52 -951.083)" fill="#50bfa5"/><g transform="translate(291.936 92.072)"><path d="M2128.77,1191.176a23.7,23.7,0,0,0-2.042-8.363c-1.619-3.113-4.464-5.359-6.948-7.833a43.455,43.455,0,0,1-10.361-16.515c-1.659-4.792-2.485-9.9-4.771-14.423-1.4-2.763-3.3-5.233-4.883-7.892-3.747-6.284-5.786-13.71-10.866-18.969a22.8,22.8,0,0,0,5.15,18.036,30.426,30.426,0,0,1,3.656,4.445c1.73,3.032,1.573,6.73,1.776,10.217a44.871,44.871,0,0,0,5.365,18.778c3.333,6.121,8.145,11.571,9.927,18.311,1.336,5.051.939,10.716,3.786,15.094a3.864,3.864,0,0,1,.737,1.512,3.313,3.313,0,0,1-.056.949l-.191,1.22c-.648,4.134-1.317,9.394,2.235,12.488,2.462,2.145,5.631,2.192,7.4-.656,1.781-2.868,1.622-7.065,1.49-10.293C2129.95,1201.908,2129.375,1196.518,2128.77,1191.176Z" transform="translate(-2088.648 -1097.48)" fill="#3c8f7c"/><path d="M2266.155,1091.205c-1.382-4.785-3.527-9.343-4.6-14.207-1.043-4.718-1.051-9.595-1.054-14.427q-.006-7.942-.011-15.885a59.887,59.887,0,0,0-.551-9.862c-1.172-6.995-4.807-13.462-5.424-20.528-.266-3.055.043-6.144-.293-9.192a14.463,14.463,0,0,0-1.445-5.064,2.255,2.255,0,0,0-4.048.114c-1.766,3.826-2.886,7.961-2.172,12.06a49.321,49.321,0,0,0,2.287,7.117c3.541,10.534,1.662,22.194,4.4,32.964.827,3.251,2.078,6.439,2.223,9.791.348,8.022-5.643,15.35-5.094,23.361.45,6.568,5.173,12,7.155,18.281,1.109,3.514,1.347,7.265,2.535,10.753.924,2.71,3.071,6,6.408,5.178,3.167-.781,2.21-3.366,2.068-5.835C2268.062,1107.471,2268.512,1099.366,2266.155,1091.205Z" transform="translate(-2219.636 -1000.835)" fill="#327f6b"/><path d="M2340.278,1119.006c-.139-2.487-.559-4.987-.211-7.453a43.486,43.486,0,0,1,1.715-6.063,54.514,54.514,0,0,0,1.653-11.682q.733-10.722,1.465-21.443c.759-11.111,1.522-22.253,3.6-33.193.577-3.038,1.224-6.329-.141-9.1-.288-.584-.854-1.2-1.475-1.01-.442.139-.659.626-.82,1.061-4.541,12.341-6.257,25.628-11.325,37.76a48.53,48.53,0,0,0-3.255,8.853c-.755,3.707-.34,7.536-.243,11.319a53.417,53.417,0,0,1-1.886,16.1,66.767,66.767,0,0,0-2.263,8.2c-.535,3.5-.085,7.063.25,10.587a162.567,162.567,0,0,1,.653,20.393c-.123,4,3.253,3.894,5.489,1.437,1.564-1.718,1.55-3.6,2.085-5.744C2337.326,1132.012,2340.7,1126.62,2340.278,1119.006Z" transform="translate(-2286.509 -1024.25)" fill="#3c8f7c"/><path d="M2182.313,1512.067c-2.985-4.8-8.932-7.523-10.84-12.843-.485-1.353-.675-2.81-1.268-4.119-1.317-2.909-4.312-4.553-7.257-5.892a.623.623,0,0,0-.88.56h0a2.126,2.126,0,0,0,.922,1.8,11.946,11.946,0,0,1,4.76,6.492c.909,3.117.515,6.535,1.645,9.579.949,2.556,2.9,4.645,3.821,7.212.839,2.347.75,4.911,1.145,7.372s1.488,5.073,3.748,6.114C2186.285,1532.106,2184.241,1515.166,2182.313,1512.067Z" transform="translate(-2149.635 -1406.467)" fill="#327f6b"/><path d="M2409.692,1457.806c-.127,2.319.227,4.75-.68,6.887a20.891,20.891,0,0,1-2.482,3.685c-3.01,4.258-4.1,10.29-8.727,12.687a1.572,1.572,0,0,1-.983.237,1.506,1.506,0,0,1-.975-.989c-1.134-2.642.139-5.618.892-8.393a2.06,2.06,0,0,0,.011-1.474c-.254-.491-.835-.7-1.231-1.089-.79-.769-.716-2.04-.559-3.133a70.978,70.978,0,0,1,1.65-8.1,14.171,14.171,0,0,1,1.733-4.333,19.19,19.19,0,0,1,3.654-3.615,43.3,43.3,0,0,0,12.64-18.659,12.264,12.264,0,0,1,2.115-4.42c1.1-1.219,3.072-1.847,4.417-.9.957.673-2.962,6.977-3.419,7.733-1.305,2.16-1.323,4.04-2.061,6.439C2413.879,1446.247,2410.038,1451.508,2409.692,1457.806Z" transform="translate(-2343.005 -1353.788)" fill="#3c8f7c"/><path d="M2365.721,1358.234a28.564,28.564,0,0,0,2-6.809c.313-2.619-.1-5.3.345-7.9.575-3.341,2.523-6.28,3.487-9.53a62.821,62.821,0,0,0,1.286-7.226c1.2-6.9,4.439-13.639,3.509-20.578-.2-1.509-.884-3.269-2.382-3.526-1.356-.233-2.591,1.007-2.943,2.34a12.613,12.613,0,0,0,.008,4.113,16.985,16.985,0,0,1-3.042,10.891c-2.131,3.015-5.222,5.284-7.139,8.439-2.352,3.87-2.672,8.595-3.873,12.964-2.386,8.687-8.371,16.266-9.462,25.211-.434,3.559.4,7.885,3.686,9.307C2360.7,1380.047,2363.568,1363.8,2365.721,1358.234Z" transform="translate(-2303.592 -1251.535)" fill="#327f6b"/><path d="M2239.195,1696.059h-21.8a2.313,2.313,0,0,0-2.246,2.848l7.948,33.514a2.309,2.309,0,0,0,2.246,1.779h26.19a2.31,2.31,0,0,0,2.246-1.779l7.948-33.514a2.312,2.312,0,0,0-2.245-2.848Z" transform="translate(-2193.674 -1578.334)" fill="#f47458"/></g><g transform="translate(0 170.572)"><rect width="105.978" height="5.474" transform="translate(12.738)" fill="#184655"/><rect width="69.288" height="4.79" transform="translate(14.654 31.752)" fill="#184655"/><rect width="4.47" height="74.653" transform="translate(103.845 2.737)" fill="#184655"/><rect width="4.47" height="74.653" transform="translate(40.624 2.737)" fill="#184655"/><path d="M768.691,1552.081l24.082-74.011-3.947-1.284-24.5,75.3Z" transform="translate(-696.642 -1474.691)" fill="#184655"/><path d="M368.927,1552.138l20.6-74.173-4-1.111-20.906,75.284Z" transform="translate(-364.618 -1474.747)" fill="#184655"/></g><path d="M1646.892,671.655l7.872-.129a3.442,3.442,0,0,1-3.593,3.15C1646.952,674.866,1646.892,671.655,1646.892,671.655Z" transform="translate(-1429.759 -635.217)" fill="#fff"/></svg>